<svg width="14" height="14" viewBox="0 0 14 14" fill="none" xmlns="http://www.w3.org/2000/svg">
<g clip-path="url(#clip0_469_98)">
<path d="M6.99935 1.52563C10.2211 1.52563 12.8327 4.13722 12.8327 7.35897C12.8327 10.5807 10.2211 13.1923 6.99935 13.1923C3.7776 13.1923 1.16602 10.5807 1.16602 7.35897C1.16602 4.13722 3.7776 1.52563 6.99935 1.52563ZM9.33502 7.87114C9.13377 7.56489 8.98852 7.34439 8.43552 7.43189C7.39135 7.59755 7.27527 7.78014 7.22568 8.08114L7.21168 8.17214L7.1971 8.26897C7.14052 8.66739 7.14227 8.81789 7.32543 9.0098C8.06335 9.78447 8.50552 10.3427 8.63968 10.6694C8.70502 10.8286 8.87302 11.3111 8.75752 11.7882C9.46542 11.5059 10.0956 11.0585 10.5956 10.4833C10.6598 10.2651 10.7064 9.9933 10.7064 9.6643V9.60305C10.7064 9.06522 10.7064 8.81964 10.3261 8.60205C10.204 8.53243 10.0784 8.46915 9.94985 8.41247C9.73577 8.31505 9.59402 8.25147 9.40269 7.97147C9.37935 7.93841 9.3568 7.90497 9.33502 7.87114ZM6.99935 2.59488C5.64777 2.59488 4.42685 3.15839 3.56002 4.06255C3.66327 4.1343 3.7531 4.23522 3.81493 4.37405C3.93393 4.64064 3.93393 4.91539 3.93393 5.15864C3.93393 5.34997 3.93393 5.53197 3.99518 5.66322C4.07918 5.84289 4.44202 5.91989 4.76227 5.98639C4.87718 6.01089 4.99502 6.03539 5.10235 6.06514C5.39752 6.1468 5.62618 6.41222 5.80877 6.62514C5.8846 6.71322 5.99718 6.8433 6.05377 6.87597C6.08293 6.85497 6.17685 6.75289 6.22293 6.58547C6.2591 6.45714 6.2486 6.34397 6.19668 6.28214C5.87002 5.89714 5.8881 5.1563 5.98902 4.88272C6.14768 4.45164 6.64352 4.48372 7.00635 4.50705C7.14168 4.5158 7.26885 4.52455 7.36452 4.5123C7.72735 4.4668 7.83935 3.91439 7.9181 3.80647C8.08843 3.57314 8.60993 3.22139 8.9331 3.00439C8.3246 2.73308 7.6656 2.59352 6.99935 2.59488Z" fill="#6F6F6F"/>
</g>
<defs>
<clipPath id="clip0_469_98">
<rect width="14" height="14" fill="white"/>
</clipPath>
</defs>
</svg>
