<svg width="35" height="35" viewBox="0 0 35 35" fill="none" xmlns="http://www.w3.org/2000/svg">
<path d="M24.7923 26.25C23.1736 26.25 21.8757 27.5479 21.8757 29.1666C21.8757 29.9402 22.1829 30.682 22.7299 31.229C23.2769 31.776 24.0188 32.0833 24.7923 32.0833C25.5659 32.0833 26.3077 31.776 26.8547 31.229C27.4017 30.682 27.709 29.9402 27.709 29.1666C27.709 28.3931 27.4017 27.6512 26.8547 27.1042C26.3077 26.5573 25.5659 26.25 24.7923 26.25ZM1.45898 2.91663V5.83329H4.37565L9.62565 16.902L7.64232 20.475C7.42357 20.8833 7.29232 21.3645 7.29232 21.875C7.29232 22.6485 7.59961 23.3904 8.14659 23.9374C8.69357 24.4843 9.43544 24.7916 10.209 24.7916H27.709V21.875H10.8215C10.7248 21.875 10.6321 21.8365 10.5637 21.7682C10.4953 21.6998 10.4569 21.6071 10.4569 21.5104C10.4569 21.4375 10.4715 21.3791 10.5007 21.3354L11.8132 18.9583H22.6777C23.7715 18.9583 24.734 18.3458 25.2298 17.4562L30.4507 8.02079C30.5527 7.78746 30.6257 7.53954 30.6257 7.29163C30.6257 6.90485 30.472 6.53392 30.1985 6.26043C29.925 5.98694 29.5541 5.83329 29.1673 5.83329H7.59857L6.22774 2.91663M10.209 26.25C8.59024 26.25 7.29232 27.5479 7.29232 29.1666C7.29232 29.9402 7.59961 30.682 8.14659 31.229C8.69357 31.776 9.43544 32.0833 10.209 32.0833C10.9825 32.0833 11.7244 31.776 12.2714 31.229C12.8184 30.682 13.1257 29.9402 13.1257 29.1666C13.1257 28.3931 12.8184 27.6512 12.2714 27.1042C11.7244 26.5573 10.9825 26.25 10.209 26.25Z" fill="white"/>
</svg>
