<svg width="60" height="59" viewBox="0 0 60 59" fill="none" xmlns="http://www.w3.org/2000/svg">
<path d="M47.4 47.275C44.1463 47.275 41.5375 49.8838 41.5375 53.1375C41.5375 54.6923 42.1552 56.1835 43.2546 57.2829C44.354 58.3823 45.8452 59 47.4 59C48.9548 59 50.446 58.3823 51.5454 57.2829C52.6448 56.1835 53.2625 54.6923 53.2625 53.1375C53.2625 51.5827 52.6448 50.0915 51.5454 48.9921C50.446 47.8927 48.9548 47.275 47.4 47.275ZM0.5 0.375V6.2375H6.3625L16.915 28.4857L12.9285 35.6673C12.4888 36.488 12.225 37.4553 12.225 38.4813C12.225 40.0361 12.8427 41.5272 13.9421 42.6267C15.0415 43.7261 16.5327 44.3438 18.0875 44.3438H53.2625V38.4813H19.3186C19.1243 38.4813 18.9379 38.404 18.8004 38.2666C18.663 38.1292 18.5858 37.9428 18.5858 37.7484C18.5858 37.6019 18.6151 37.4846 18.6737 37.3967L21.3119 32.6188H43.1497C45.3481 32.6188 47.2827 31.3876 48.2794 29.5996L58.7733 10.6344C58.9784 10.1654 59.125 9.66706 59.125 9.16875C59.125 8.39133 58.8162 7.64576 58.2665 7.09604C57.7167 6.54633 56.9712 6.2375 56.1938 6.2375H12.8406L10.0852 0.375M18.0875 47.275C14.8338 47.275 12.225 49.8838 12.225 53.1375C12.225 54.6923 12.8427 56.1835 13.9421 57.2829C15.0415 58.3823 16.5327 59 18.0875 59C19.6423 59 21.1335 58.3823 22.2329 57.2829C23.3323 56.1835 23.95 54.6923 23.95 53.1375C23.95 51.5827 23.3323 50.0915 22.2329 48.9921C21.1335 47.8927 19.6423 47.275 18.0875 47.275Z" fill="#005057"/>
</svg>
