<svg width="26" height="26" viewBox="0 0 26 26" fill="none" xmlns="http://www.w3.org/2000/svg">
<path fill-rule="evenodd" clip-rule="evenodd" d="M13.0477 22.2758H13.0437C11.3584 22.2762 9.70384 21.8253 8.25195 20.9697L7.90816 20.7665L4.34484 21.6968L5.29598 18.2392L5.07203 17.8837C4.12973 16.3918 3.63048 14.663 3.63238 12.8985C3.63238 7.73251 7.85789 3.52935 13.0513 3.52935C15.5426 3.5249 17.9337 4.51021 19.6986 6.26855C21.4635 8.02689 22.4577 10.4143 22.4626 12.9056C22.4606 18.0721 18.2371 22.2758 13.0477 22.2758ZM16.2779 14.3417C16.5359 14.4356 17.9288 15.1171 18.2117 15.2583C18.495 15.399 18.6839 15.4701 18.7545 15.5874C18.8251 15.7047 18.8246 16.2683 18.5895 16.9265C18.3544 17.5846 17.2225 18.1853 16.6786 18.2661C16.1911 18.3387 15.5741 18.3686 14.8962 18.1543C14.3482 17.985 13.8095 17.787 13.2823 17.5612C10.4432 16.3409 8.58762 13.4957 8.44746 13.3078C8.30731 13.1199 7.29168 11.7793 7.29168 10.394C7.29168 9.00864 8.02293 8.32614 8.28242 8.0438C8.37723 7.93635 8.49317 7.8496 8.62301 7.78896C8.75284 7.72833 8.89378 7.69511 9.03703 7.69138C9.22442 7.69138 9.41484 7.69341 9.57988 7.70154C9.75356 7.71017 9.98664 7.63552 10.2167 8.18497C10.4523 8.74915 11.0185 10.136 11.0891 10.2767C11.1597 10.4173 11.2064 10.5818 11.1125 10.7697C11.0185 10.9576 10.9713 11.0754 10.8296 11.24C10.6879 11.4045 10.5325 11.6071 10.4051 11.7336C10.2634 11.8737 10.1161 12.0266 10.2812 12.3084C10.4462 12.5902 11.0139 13.5124 11.8554 14.2594C12.9365 15.2192 13.8491 15.5163 14.1319 15.6574C14.4148 15.7986 14.5798 15.7778 14.7448 15.5874C14.9099 15.3969 15.4527 14.7652 15.6411 14.4829C15.8295 14.2005 16.02 14.2477 16.2779 14.3417Z" fill="#E0FE08"/>
<path fill-rule="evenodd" clip-rule="evenodd" d="M17.3843 2.47764C18.7595 3.045 20.0089 3.87876 21.0605 4.93091C22.1141 5.97396 22.9496 7.21611 23.5187 8.5851C24.0877 9.95408 24.3788 11.4226 24.375 12.9051C24.372 19.1212 19.2903 24.1785 13.0477 24.1785H13.0432C11.1527 24.1792 9.29204 23.708 7.62988 22.8074L1.625 24.375L3.23223 18.5352C2.23897 16.8229 1.71717 14.878 1.71996 12.8985C1.7225 6.68185 6.80469 1.62505 13.0477 1.62505C14.5353 1.62053 16.0092 1.91029 17.3843 2.47764ZM13.0437 22.2758H13.0477C18.2371 22.2758 22.4606 18.0721 22.4626 12.9056C22.4577 10.4143 21.4635 8.02689 19.6986 6.26855C17.9337 4.51021 15.5426 3.5249 13.0513 3.52935C7.85789 3.52935 3.63238 7.73251 3.63238 12.8985C3.63048 14.663 4.12973 16.3918 5.07203 17.8837L5.29598 18.2392L4.34484 21.6968L7.90816 20.7665L8.25195 20.9697C9.70384 21.8253 11.3584 22.2762 13.0437 22.2758Z" fill="#E0FE08"/>
</svg>
