<svg width="52" height="52" viewBox="0 0 52 52" fill="none" xmlns="http://www.w3.org/2000/svg">
<path d="M12.9244 6.79468C11.4546 7.18834 10.1143 7.96206 9.03828 9.03804C7.96231 10.114 7.18858 11.4543 6.79492 12.9242M39.0761 6.79468C40.5459 7.18834 41.8862 7.96206 42.9622 9.03804C44.0382 10.114 44.8119 11.4543 45.2056 12.9242" stroke="white" stroke-width="2" stroke-linecap="round"/>
<path fill-rule="evenodd" clip-rule="evenodd" d="M25.9993 43.3334C30.5964 43.3334 35.0052 41.5072 38.2559 38.2565C41.5065 35.0059 43.3327 30.5971 43.3327 26C43.3327 21.4029 41.5065 16.9941 38.2559 13.7435C35.0052 10.4929 30.5964 8.66669 25.9993 8.66669C21.4023 8.66669 16.9935 10.4929 13.7428 13.7435C10.4922 16.9941 8.66602 21.4029 8.66602 26C8.66602 30.5971 10.4922 35.0059 13.7428 38.2565C16.9935 41.5072 21.4023 43.3334 25.9993 43.3334ZM28.166 17.3334C28.166 16.7587 27.9377 16.2076 27.5314 15.8013C27.1251 15.395 26.574 15.1667 25.9993 15.1667C25.4247 15.1667 24.8736 15.395 24.4673 15.8013C24.061 16.2076 23.8327 16.7587 23.8327 17.3334V25.4584C23.8327 26.9534 25.046 28.1667 26.541 28.1667H32.4993C33.074 28.1667 33.6251 27.9384 34.0314 27.5321C34.4377 27.1258 34.666 26.5747 34.666 26C34.666 25.4254 34.4377 24.8743 34.0314 24.468C33.6251 24.0616 33.074 23.8334 32.4993 23.8334H28.166V17.3334Z" fill="white"/>
</svg>
