<svg width="25" height="35" viewBox="0 0 25 35" fill="none" xmlns="http://www.w3.org/2000/svg">
<path d="M12.5 16.625C11.316 16.625 10.1805 16.1641 9.34327 15.3436C8.50606 14.5231 8.03571 13.4103 8.03571 12.25C8.03571 11.0897 8.50606 9.97688 9.34327 9.15641C10.1805 8.33594 11.316 7.875 12.5 7.875C13.684 7.875 14.8195 8.33594 15.6567 9.15641C16.4939 9.97688 16.9643 11.0897 16.9643 12.25C16.9643 12.8245 16.8488 13.3934 16.6245 13.9242C16.4001 14.455 16.0713 14.9373 15.6567 15.3436C15.2422 15.7498 14.75 16.0721 14.2084 16.292C13.6668 16.5118 13.0863 16.625 12.5 16.625ZM12.5 0C9.18479 0 6.00537 1.29062 3.66116 3.58794C1.31696 5.88526 0 9.0011 0 12.25C0 21.4375 12.5 35 12.5 35C12.5 35 25 21.4375 25 12.25C25 9.0011 23.683 5.88526 21.3388 3.58794C18.9946 1.29062 15.8152 0 12.5 0Z" fill="#E0FE08"/>
</svg>
