<svg width="19" height="19" viewBox="0 0 19 19" fill="none" xmlns="http://www.w3.org/2000/svg">
<path d="M9.5 2.53333C9.5 2.53333 4.75 7.91666 4.75 11.0833C4.75 13.6958 6.8875 15.8333 9.5 15.8333C12.1125 15.8333 14.25 13.6958 14.25 11.0833C14.25 7.91666 9.5 2.53333 9.5 2.53333ZM9.5 6.72916V7.91666C11.2417 7.91666 12.6667 9.34166 12.6667 11.0833C12.6667 11.7167 12.5083 12.35 12.1125 12.825L11.2417 11.9542C11.4 11.7167 11.4792 11.4 11.4792 11.0833C11.4792 9.97499 10.6083 9.10416 9.5 9.10416V10.2917L7.75833 8.54999L9.5 6.72916ZM6.8875 9.34166L7.75833 10.2125C7.6 10.45 7.52083 10.7667 7.52083 11.0833C7.52083 12.1917 8.39167 13.0625 9.5 13.0625V11.875L11.2417 13.6167L9.5 15.4375V14.25C7.75833 14.25 6.33333 12.825 6.33333 11.0833C6.33333 10.45 6.49167 9.81666 6.8875 9.34166Z" fill="#6F6F6F"/>
</svg>
