<svg width="53" height="53" viewBox="0 0 53 53" fill="none" xmlns="http://www.w3.org/2000/svg">
<path fill-rule="evenodd" clip-rule="evenodd" d="M21.5648 6.62049C22.1862 5.92651 22.9469 5.37137 23.7974 4.9913C24.6478 4.61124 25.5689 4.41479 26.5004 4.41479C27.4319 4.41479 28.353 4.61124 29.2034 4.9913C30.0539 5.37137 30.8146 5.92651 31.436 6.62049L32.9819 8.34741C33.2028 8.59454 33.4765 8.78876 33.7827 8.91568C34.0889 9.0426 34.4198 9.09896 34.7507 9.08058L37.0695 8.95249C37.9993 8.90143 38.9294 9.04696 39.7992 9.37958C40.669 9.71221 41.4589 10.2245 42.1174 10.8829C42.7758 11.5414 43.2881 12.3313 43.6207 13.2011C43.9534 14.0709 44.0989 15.001 44.0478 15.9308L43.9197 18.2496C43.9017 18.5802 43.9582 18.9106 44.0851 19.2164C44.212 19.5222 44.4061 19.7956 44.6529 20.0162L46.382 21.5621C47.0764 22.1835 47.6318 22.9444 48.0121 23.795C48.3924 24.6457 48.589 25.567 48.589 26.4988C48.589 27.4306 48.3924 28.3519 48.0121 29.2026C47.6318 30.0533 47.0764 30.8141 46.382 31.4355L44.6529 32.9814C44.4058 33.2023 44.2116 33.476 44.0846 33.7822C43.9577 34.0884 43.9014 34.4193 43.9197 34.7502L44.0478 37.069C44.0989 37.9988 43.9534 38.9289 43.6207 39.7987C43.2881 40.6685 42.7758 41.4584 42.1174 42.1169C41.4589 42.7753 40.669 43.2876 39.7992 43.6202C38.9294 43.9529 37.9993 44.0984 37.0695 44.0473L34.7507 43.9192C34.4201 43.9012 34.0897 43.9577 33.7839 44.0846C33.4781 44.2115 33.2048 44.4056 32.9841 44.6524L31.4382 46.3815C30.8168 47.0759 30.056 47.6313 29.2053 48.0116C28.3546 48.3919 27.4333 48.5885 26.5015 48.5885C25.5697 48.5885 24.6484 48.3919 23.7977 48.0116C22.9471 47.6313 22.1862 47.0759 21.5648 46.3815L20.019 44.6524C19.798 44.4053 19.5243 44.2111 19.2181 44.0841C18.9119 43.9572 18.581 43.9009 18.2501 43.9192L15.9313 44.0473C15.0015 44.0984 14.0714 43.9529 13.2016 43.6202C12.3318 43.2876 11.5419 42.7753 10.8834 42.1169C10.225 41.4584 9.71271 40.6685 9.38008 39.7987C9.04746 38.9289 8.90193 37.9988 8.95299 37.069L9.08108 34.7502C9.09912 34.4196 9.0426 34.0892 8.91569 33.7834C8.78878 33.4776 8.59474 33.2043 8.34791 32.9836L6.62099 31.4377C5.92665 30.8163 5.37119 30.0555 4.99091 29.2048C4.61062 28.3541 4.41406 27.4328 4.41406 26.501C4.41406 25.5692 4.61062 24.6479 4.99091 23.7972C5.37119 22.9466 5.92665 22.1857 6.62099 21.5643L8.34791 20.0185C8.59504 19.7975 8.78926 19.5238 8.91618 19.2176C9.0431 18.9114 9.09946 18.5805 9.08108 18.2496L8.95299 15.9308C8.90193 15.001 9.04746 14.0709 9.38008 13.2011C9.71271 12.3313 10.225 11.5414 10.8834 10.8829C11.5419 10.2245 12.3318 9.71221 13.2016 9.37958C14.0714 9.04696 15.0015 8.90143 15.9313 8.95249L18.2501 9.08058C18.5807 9.09862 18.9111 9.0421 19.2169 8.91519C19.5227 8.78828 19.7961 8.59424 20.0167 8.34741L21.5648 6.62049ZM34.6867 18.3136C35.1007 18.7277 35.3333 19.2893 35.3333 19.8749C35.3333 20.4605 35.1007 21.0221 34.6867 21.4362L21.4367 34.6862C21.0202 35.0885 20.4624 35.3111 19.8834 35.306C19.3043 35.301 18.7505 35.0687 18.341 34.6593C17.9316 34.2499 17.6993 33.696 17.6943 33.117C17.6893 32.5379 17.9119 31.9801 18.3141 31.5636L31.5641 18.3136C31.9782 17.8996 32.5398 17.667 33.1254 17.667C33.711 17.667 34.2726 17.8996 34.6867 18.3136ZM20.9796 17.6666C20.101 17.6666 19.2585 18.0156 18.6373 18.6368C18.0161 19.258 17.6671 20.1005 17.6671 20.9791V21.0012C17.6671 21.8797 18.0161 22.7222 18.6373 23.3435C19.2585 23.9647 20.101 24.3137 20.9796 24.3137H21.0017C21.8802 24.3137 22.7227 23.9647 23.344 23.3435C23.9652 22.7222 24.3142 21.8797 24.3142 21.0012V20.9791C24.3142 20.1005 23.9652 19.258 23.344 18.6368C22.7227 18.0156 21.8802 17.6666 21.0017 17.6666H20.9796ZM32.0212 28.7082C31.1427 28.7082 30.3002 29.0572 29.679 29.6785C29.0577 30.2997 28.7087 31.1422 28.7087 32.0207V32.0428C28.7087 32.9214 29.0577 33.7639 29.679 34.3851C30.3002 35.0063 31.1427 35.3553 32.0212 35.3553H32.0433C32.9219 35.3553 33.7644 35.0063 34.3856 34.3851C35.0068 33.7639 35.3558 32.9214 35.3558 32.0428V32.0207C35.3558 31.1422 35.0068 30.2997 34.3856 29.6785C33.7644 29.0572 32.9219 28.7082 32.0433 28.7082H32.0212Z" fill="#005057"/>
</svg>
