<svg width="60" height="60" viewBox="0 0 60 60" fill="none" xmlns="http://www.w3.org/2000/svg">
<path fill-rule="evenodd" clip-rule="evenodd" d="M31.7679 39.2675C31.299 39.7362 30.6633 39.9995 30.0004 39.9995C29.3375 39.9995 28.7017 39.7362 28.2329 39.2675L14.0904 25.125C13.8516 24.8944 13.6611 24.6185 13.5301 24.3135C13.3991 24.0085 13.3301 23.6805 13.3272 23.3485C13.3244 23.0166 13.3876 22.6874 13.5133 22.3801C13.639 22.0729 13.8247 21.7937 14.0594 21.559C14.2941 21.3243 14.5732 21.1387 14.8805 21.0129C15.1877 20.8872 15.5169 20.824 15.8489 20.8269C16.1808 20.8298 16.5089 20.8987 16.8139 21.0297C17.1189 21.1608 17.3948 21.3512 17.6254 21.59L30.0004 33.965L42.3754 21.59C42.8469 21.1346 43.4784 20.8826 44.1339 20.8883C44.7894 20.894 45.4164 21.1569 45.8799 21.6205C46.3434 22.084 46.6064 22.711 46.6121 23.3665C46.6178 24.022 46.3658 24.6535 45.9104 25.125L31.7679 39.2675Z" fill="black"/>
</svg>
