<svg width="40" height="40" viewBox="0 0 40 40" fill="none" xmlns="http://www.w3.org/2000/svg">
<path fill-rule="evenodd" clip-rule="evenodd" d="M8.33301 33.3332C7.00693 33.3332 5.73516 32.8064 4.79747 31.8687C3.85979 30.931 3.33301 29.6593 3.33301 28.3332V11.6665C3.33301 10.3404 3.85979 9.06865 4.79747 8.13097C5.73516 7.19329 7.00693 6.6665 8.33301 6.6665H31.6663C32.9924 6.6665 34.2642 7.19329 35.2019 8.13097C36.1396 9.06865 36.6663 10.3404 36.6663 11.6665V28.3332C36.6663 29.6593 36.1396 30.931 35.2019 31.8687C34.2642 32.8064 32.9924 33.3332 31.6663 33.3332H8.33301ZM12.708 13.6998C12.5382 13.5549 12.3411 13.4455 12.1282 13.3782C11.9153 13.3109 11.6911 13.287 11.4689 13.308C11.2466 13.329 11.0308 13.3945 10.8344 13.5005C10.6379 13.6065 10.4647 13.7509 10.3251 13.9251C10.1855 14.0993 10.0823 14.2998 10.0217 14.5147C9.96107 14.7296 9.94423 14.9544 9.97217 15.1759C10.0001 15.3974 10.0723 15.611 10.1844 15.8041C10.2964 15.9972 10.4462 16.1657 10.6247 16.2998L16.8747 21.3015C17.7615 22.0115 18.8636 22.3984 19.9997 22.3984C21.1357 22.3984 22.2379 22.0115 23.1247 21.3015L29.3747 16.3015C29.5456 16.1647 29.6879 15.9956 29.7935 15.8038C29.8991 15.612 29.9659 15.4013 29.99 15.1837C30.0141 14.9661 29.9952 14.7459 29.9342 14.5356C29.8733 14.3253 29.7715 14.1291 29.6347 13.9582C29.4979 13.7872 29.3288 13.6449 29.137 13.5393C28.9452 13.4338 28.7345 13.367 28.5169 13.3429C28.2993 13.3187 28.079 13.3377 27.8688 13.3986C27.6585 13.4596 27.4623 13.5614 27.2913 13.6982L21.0413 18.6982C20.7457 18.9348 20.3784 19.0638 19.9997 19.0638C19.621 19.0638 19.2536 18.9348 18.958 18.6982L12.708 13.6998Z" fill="#005057"/>
</svg>
