<svg width="38" height="47" viewBox="0 0 38 47" fill="none" xmlns="http://www.w3.org/2000/svg">
<path d="M0.577383 2.45325C0.619925 1.93608 0.860184 1.45522 1.24819 1.11066C1.6362 0.766097 2.1421 0.584364 2.66067 0.603254C3.17924 0.622143 3.67058 0.840201 4.03249 1.21208C4.3944 1.58395 4.59904 2.08103 4.60384 2.59992V12.8987C4.60384 13.2785 4.75474 13.6428 5.02335 13.9115C5.29196 14.1801 5.65627 14.331 6.03613 14.331C6.416 14.331 6.78031 14.1801 7.04892 13.9115C7.31752 13.6428 7.46842 13.2785 7.46842 12.8987V2.302C7.46842 1.84616 7.64951 1.40899 7.97183 1.08666C8.29416 0.764334 8.73133 0.583252 9.18717 0.583252C9.64302 0.583252 10.0802 0.764334 10.4025 1.08666C10.7248 1.40899 10.9059 1.84616 10.9059 2.302V12.8987C10.9059 13.2785 11.0568 13.6428 11.3254 13.9115C11.594 14.1801 11.9583 14.331 12.3382 14.331C12.7181 14.331 13.0824 14.1801 13.351 13.9115C13.6196 13.6428 13.7705 13.2785 13.7705 12.8987V2.59992C13.7753 2.08103 13.9799 1.58395 14.3419 1.21208C14.7038 0.840201 15.1951 0.622143 15.7137 0.603254C16.2323 0.584364 16.7381 0.766097 17.1262 1.11066C17.5142 1.45522 17.7544 1.93608 17.797 2.45325C17.8955 3.85575 18.3538 10.5978 18.3538 14.3333C18.3538 17.427 16.8184 20.1633 14.4763 21.8201C13.9813 22.1708 13.8622 22.542 13.8736 22.7299C14.1555 27.0337 14.9163 38.8128 14.9163 40.6805C14.9163 42.2 14.3127 43.6572 13.2383 44.7317C12.1639 45.8061 10.7066 46.4097 9.18717 46.4097C7.66771 46.4097 6.21047 45.8061 5.13604 44.7317C4.06161 43.6572 3.45801 42.2 3.45801 40.6805C3.45801 38.8105 4.21884 27.0337 4.50072 22.7299C4.51217 22.542 4.39301 22.1708 3.89801 21.8201C2.69971 20.9736 1.72212 19.8518 1.04739 18.549C0.372658 17.2461 0.0204992 15.8004 0.0205078 14.3333C0.0205078 10.5978 0.478841 3.85575 0.577383 2.45325ZM21.7913 13.7603C21.7913 10.2656 23.1796 6.91391 25.6508 4.44273C28.122 1.97155 31.4736 0.583252 34.9684 0.583252C35.4243 0.583252 35.8614 0.764334 36.1838 1.08666C36.5061 1.40899 36.6872 1.84616 36.6872 2.302V21.7812C36.6872 22.5099 36.9301 26.1239 37.2028 30.1274L37.2143 30.3176C37.5122 34.6901 37.833 39.4453 37.833 40.6805C37.833 42.2 37.2294 43.6572 36.155 44.7317C35.0805 45.8061 33.6233 46.4097 32.1038 46.4097C30.5844 46.4097 29.1271 45.8061 28.0527 44.7317C26.9783 43.6572 26.3747 42.2 26.3747 40.6805C26.3747 39.5026 26.668 34.697 26.9522 30.2901C27.0943 28.0649 27.2386 25.9085 27.3463 24.3089L27.399 23.4999H25.8018C25.2751 23.4999 24.7536 23.3962 24.267 23.1946C23.7805 22.9931 23.3384 22.6977 22.966 22.3253C22.5936 21.9529 22.2982 21.5108 22.0966 21.0242C21.8951 20.5377 21.7913 20.0162 21.7913 19.4895V13.7603Z" fill="#005057"/>
</svg>
