<svg width="28" height="28" viewBox="0 0 28 28" fill="none" xmlns="http://www.w3.org/2000/svg">
<path d="M2.33301 6.99418C2.33301 6.35251 2.85334 5.83334 3.49384 5.83334H12.8388C13.1467 5.83334 13.442 5.95565 13.6597 6.17334C13.8774 6.39104 13.9997 6.6863 13.9997 6.99418C13.9997 7.30205 13.8774 7.59731 13.6597 7.81501C13.442 8.03271 13.1467 8.15501 12.8388 8.15501H3.49384C3.18597 8.15501 2.89071 8.03271 2.67301 7.81501C2.45531 7.59731 2.33301 7.30205 2.33301 6.99418ZM2.33301 14C2.33301 13.3583 2.85334 12.8392 3.49384 12.8392H24.5055C24.8134 12.8392 25.1086 12.9615 25.3263 13.1792C25.544 13.3969 25.6663 13.6921 25.6663 14C25.6663 14.3079 25.544 14.6031 25.3263 14.8208C25.1086 15.0385 24.8134 15.1608 24.5055 15.1608H3.49384C3.18597 15.1608 2.89071 15.0385 2.67301 14.8208C2.45531 14.6031 2.33301 14.3079 2.33301 14ZM3.49384 19.845C3.18597 19.845 2.89071 19.9673 2.67301 20.185C2.45531 20.4027 2.33301 20.698 2.33301 21.0058C2.33301 21.3137 2.45531 21.609 2.67301 21.8267C2.89071 22.0444 3.18597 22.1667 3.49384 22.1667H17.5055C17.8134 22.1667 18.1086 22.0444 18.3263 21.8267C18.544 21.609 18.6663 21.3137 18.6663 21.0058C18.6663 20.698 18.544 20.4027 18.3263 20.185C18.1086 19.9673 17.8134 19.845 17.5055 19.845H3.49384Z" fill="black" fill-opacity="0.7"/>
</svg>
