<svg width="39" height="39" viewBox="0 0 39 39" fill="none" xmlns="http://www.w3.org/2000/svg">
<path d="M6.5 30.875V16.25C6.5 15.7354 6.61537 15.2479 6.84612 14.7875C7.07687 14.3271 7.39483 13.9479 7.8 13.65L17.55 6.3375C18.1187 5.90417 18.7687 5.6875 19.5 5.6875C20.2312 5.6875 20.8812 5.90417 21.45 6.3375L31.2 13.65C31.6062 13.9479 31.9247 14.3271 32.1555 14.7875C32.3862 15.2479 32.5011 15.7354 32.5 16.25V30.875C32.5 31.7687 32.1815 32.5341 31.5445 33.1711C30.9075 33.8081 30.1427 34.1261 29.25 34.125H24.375C23.9146 34.125 23.5289 33.969 23.218 33.657C22.9071 33.345 22.7511 32.9593 22.75 32.5V24.375C22.75 23.9146 22.594 23.5289 22.282 23.218C21.97 22.9071 21.5843 22.7511 21.125 22.75H17.875C17.4146 22.75 17.0289 22.906 16.718 23.218C16.4071 23.53 16.2511 23.9157 16.25 24.375V32.5C16.25 32.9604 16.094 33.3466 15.782 33.6586C15.47 33.9706 15.0843 34.1261 14.625 34.125H9.75C8.85625 34.125 8.09142 33.807 7.4555 33.1711C6.81958 32.5352 6.50108 31.7698 6.5 30.875Z" fill="#919191"/>
</svg>
