<svg width="38" height="38" viewBox="0 0 38 38" fill="none" xmlns="http://www.w3.org/2000/svg">
<path d="M33.3299 29.6192L20.6808 6.12898C19.7843 4.46352 17.3959 4.46352 16.4986 6.12898L3.85024 29.6192C3.65557 29.9808 3.55798 30.3866 3.56698 30.7972C3.57598 31.2077 3.69126 31.6089 3.90159 31.9616C4.11191 32.3143 4.41008 32.6064 4.767 32.8094C5.12392 33.0125 5.52738 33.1195 5.93801 33.1201H31.2384C31.6494 33.1202 32.0533 33.0136 32.4107 32.8108C32.7682 32.608 33.0669 32.316 33.2776 31.9632C33.4884 31.6104 33.604 31.2089 33.6132 30.7981C33.6223 30.3872 33.5247 29.9811 33.3299 29.6192ZM18.5901 29.4834C18.2965 29.4834 18.0095 29.3963 17.7654 29.2332C17.5213 29.0701 17.331 28.8383 17.2187 28.5671C17.1064 28.2958 17.077 27.9974 17.1342 27.7094C17.1915 27.4215 17.3329 27.157 17.5405 26.9494C17.7481 26.7418 18.0126 26.6004 18.3005 26.5432C18.5884 26.4859 18.8869 26.5153 19.1581 26.6276C19.4294 26.74 19.6612 26.9302 19.8243 27.1743C19.9874 27.4185 20.0745 27.7054 20.0745 27.999C20.0745 28.3927 19.9181 28.7703 19.6397 29.0486C19.3613 29.327 18.9838 29.4834 18.5901 29.4834ZM20.2021 14.5543L19.7761 23.609C19.7761 23.9239 19.651 24.226 19.4283 24.4487C19.2056 24.6714 18.9035 24.7965 18.5886 24.7965C18.2737 24.7965 17.9716 24.6714 17.7489 24.4487C17.5262 24.226 17.4011 23.9239 17.4011 23.609L16.9751 14.558C16.9655 14.3417 16.9996 14.1257 17.0753 13.9229C17.1509 13.7201 17.2667 13.5345 17.4156 13.3774C17.5645 13.2202 17.7435 13.0947 17.942 13.0082C18.1405 12.9217 18.3543 12.8761 18.5708 12.874H18.5864C18.8043 12.8739 19.0201 12.9179 19.2205 13.0035C19.421 13.089 19.602 13.2143 19.7528 13.3717C19.9035 13.5292 20.0207 13.7155 20.0975 13.9196C20.1742 14.1236 20.2088 14.341 20.1991 14.5588L20.2021 14.5543Z" fill="#FEC901"/>
</svg>
