<svg width="36" height="36" viewBox="0 0 36 36" fill="none" xmlns="http://www.w3.org/2000/svg">
<path d="M28.8446 22.89L25.0346 22.455C24.5866 22.4024 24.1325 22.452 23.7064 22.6001C23.2803 22.7482 22.8934 22.9909 22.5746 23.31L19.8146 26.07C15.5567 23.9039 12.0957 20.4429 9.92957 16.185L12.7046 13.41C13.3496 12.765 13.6646 11.865 13.5596 10.95L13.1246 7.17002C13.0398 6.43815 12.6888 5.76305 12.1383 5.27341C11.5878 4.78376 10.8763 4.51381 10.1396 4.51502H7.54457C5.84957 4.51502 4.43957 5.92502 4.54457 7.62002C5.33957 20.43 15.5846 30.66 28.3796 31.455C30.0746 31.56 31.4846 30.15 31.4846 28.455V25.86C31.4996 24.345 30.3596 23.07 28.8446 22.89Z" fill="#919191"/>
</svg>
