<svg width="65" height="65" viewBox="0 0 65 65" fill="none" xmlns="http://www.w3.org/2000/svg">
<circle cx="32.3036" cy="32.6964" r="32.3036" fill="#005057" fill-opacity="0.2"/>
<path fill-rule="evenodd" clip-rule="evenodd" d="M44.4622 33.773C45.6423 32.5743 46.2978 30.9559 46.2847 29.2738C46.2716 27.5917 45.5908 25.9838 44.3921 24.8037C43.7985 24.2194 43.0957 23.7577 42.3237 23.4449C41.5518 23.1322 40.7258 22.9746 39.8929 22.9811C38.2108 22.9943 36.6029 23.6751 35.4228 24.8738C35.1023 25.1942 34.6951 25.5876 34.201 26.0538L32.8274 27.3473L31.4538 26.0538C30.9587 25.5865 30.5509 25.1931 30.2304 24.8738C29.041 23.6844 27.4279 23.0162 25.7458 23.0162C24.0637 23.0162 22.4505 23.6844 21.2611 24.8738C18.811 27.3256 18.7826 31.2895 21.171 33.753L32.8274 45.4094L44.4622 33.773ZM19.8441 23.4585C20.6191 22.6833 21.5391 22.0684 22.5517 21.6489C23.5644 21.2294 24.6497 21.0135 25.7458 21.0135C26.8419 21.0135 27.9272 21.2294 28.9398 21.6489C29.9524 22.0684 30.8725 22.6833 31.6474 23.4585C31.9512 23.7633 32.3445 24.1428 32.8274 24.5967C33.3081 24.1428 33.7014 23.7628 34.0074 23.4568C35.5605 21.8798 37.6763 20.9844 39.8896 20.9675C42.1028 20.9506 44.2321 21.8136 45.809 23.3667C47.386 24.9197 48.2814 27.0356 48.2983 29.2488C48.3152 31.462 47.4522 33.5913 45.8992 35.1683L34.0074 47.0617C33.6944 47.3746 33.27 47.5504 32.8274 47.5504C32.3849 47.5504 31.9604 47.3746 31.6474 47.0617L19.7523 35.1666C18.2269 33.5934 17.3815 31.4833 17.3987 29.2921C17.4159 27.1008 18.2942 25.0042 19.8441 23.4551V23.4585Z" fill="#005057"/>
</svg>
