<svg width="49" height="49" viewBox="0 0 49 49" fill="none" xmlns="http://www.w3.org/2000/svg">
<path d="M24.7593 3.74524C15.7535 3.74524 8.42595 11.0728 8.42595 20.0684C8.36674 33.2269 24.1386 44.1376 24.7593 44.5786C24.7593 44.5786 41.1518 33.2269 41.0926 20.0786C41.0926 11.0728 33.7651 3.74524 24.7593 3.74524ZM24.7593 28.2452C20.2472 28.2452 16.5926 24.5907 16.5926 20.0786C16.5926 15.5665 20.2472 11.9119 24.7593 11.9119C29.2714 11.9119 32.926 15.5665 32.926 20.0786C32.926 24.5907 29.2714 28.2452 24.7593 28.2452Z" fill="#005057"/>
<path d="M24.7593 28.2452C20.2472 28.2452 16.5926 24.5907 16.5926 20.0786C16.5926 15.5665 20.2472 11.9119 24.7593 11.9119C29.2714 11.9119 32.926 15.5665 32.926 20.0786C32.926 24.5907 29.2714 28.2452 24.7593 28.2452Z" fill="white"/>
</svg>
