<svg width="22" height="22" viewBox="0 0 22 22" fill="none" xmlns="http://www.w3.org/2000/svg">
<path fill-rule="evenodd" clip-rule="evenodd" d="M10.3661 20.4064L10.3702 20.4105L10.373 20.4132C10.5534 20.55 10.7736 20.624 11 20.624C11.2264 20.624 11.4466 20.55 11.627 20.4132L11.6298 20.4105L11.6339 20.4064L11.6504 20.394C11.7389 20.3257 11.826 20.2555 11.9116 20.1836C12.9368 19.3194 13.8787 18.361 14.7249 17.3209C16.2387 15.4481 17.875 12.7256 17.875 9.625C17.875 7.80164 17.1507 6.05295 15.8614 4.76364C14.572 3.47433 12.8234 2.75 11 2.75C9.17664 2.75 7.42795 3.47433 6.13864 4.76364C4.84933 6.05295 4.125 7.80164 4.125 9.625C4.125 12.7256 5.76125 15.4481 7.2765 17.3209C8.12271 18.361 9.06459 19.3194 10.0897 20.1836L10.3496 20.394L10.3661 20.4064ZM11 11.6875C11.2709 11.6875 11.5391 11.6342 11.7893 11.5305C12.0395 11.4269 12.2669 11.2749 12.4584 11.0834C12.6499 10.8919 12.8019 10.6645 12.9055 10.4143C13.0092 10.1641 13.0625 9.89585 13.0625 9.625C13.0625 9.35415 13.0092 9.08595 12.9055 8.83572C12.8019 8.58548 12.6499 8.35811 12.4584 8.16659C12.2669 7.97507 12.0395 7.82315 11.7893 7.7195C11.5391 7.61585 11.2709 7.5625 11 7.5625C10.453 7.5625 9.92839 7.7798 9.54159 8.16659C9.1548 8.55339 8.9375 9.07799 8.9375 9.625C8.9375 10.172 9.1548 10.6966 9.54159 11.0834C9.92839 11.4702 10.453 11.6875 11 11.6875Z" fill="#005057"/>
</svg>
