<svg width="29" height="29" viewBox="0 0 29 29" fill="none" xmlns="http://www.w3.org/2000/svg">
<path fill-rule="evenodd" clip-rule="evenodd" d="M22.9695 15.25C23.7915 14.415 24.2481 13.2878 24.2389 12.1162C24.2298 10.9446 23.7556 9.82465 22.9207 9.00269C22.5073 8.59569 22.0177 8.27411 21.48 8.0563C20.9424 7.83848 20.367 7.72871 19.7869 7.73325C18.6153 7.7424 17.4954 8.2166 16.6734 9.05151C16.4502 9.27471 16.1665 9.54867 15.8224 9.8734L14.8657 10.7743L13.909 9.8734C13.5641 9.5479 13.2801 9.27394 13.0569 9.05151C12.2284 8.22307 11.1048 7.75766 9.93321 7.75766C8.76162 7.75766 7.63802 8.22307 6.80958 9.05151C5.10303 10.7592 5.08326 13.5202 6.7468 15.236L14.8657 23.3549L22.9695 15.25ZM5.82261 8.06571C6.36237 7.52581 7.00321 7.09753 7.70851 6.80532C8.41382 6.51312 9.16978 6.36273 9.93321 6.36273C10.6967 6.36273 11.4526 6.51312 12.1579 6.80532C12.8632 7.09753 13.5041 7.52581 14.0438 8.06571C14.2554 8.27806 14.5294 8.54234 14.8657 8.85854C15.2005 8.54234 15.4745 8.27767 15.6876 8.06455C16.7693 6.96618 18.2431 6.34251 19.7846 6.33074C21.3262 6.31896 22.8093 6.92005 23.9076 8.00177C25.006 9.08349 25.6297 10.5572 25.6414 12.0988C25.6532 13.6403 25.0521 15.1234 23.9704 16.2218L15.6876 24.5058C15.4696 24.7237 15.174 24.8462 14.8657 24.8462C14.5574 24.8462 14.2618 24.7237 14.0438 24.5058L5.75868 16.2206C4.6962 15.1249 4.10736 13.6552 4.11932 12.1289C4.13128 10.6027 4.74309 9.14237 5.82261 8.06339V8.06571Z" fill="#005057"/>
</svg>
