<svg width="27" height="27" viewBox="0 0 27 27" fill="none" xmlns="http://www.w3.org/2000/svg">
<path fill-rule="evenodd" clip-rule="evenodd" d="M21.2158 14.1832C21.9647 13.4225 22.3807 12.3955 22.3724 11.328C22.364 10.2606 21.932 9.24014 21.1713 8.49124C20.7946 8.12042 20.3486 7.82742 19.8587 7.62897C19.3688 7.43052 18.8446 7.33051 18.3161 7.33464C17.2486 7.34298 16.2282 7.77502 15.4793 8.53572C15.276 8.73908 15.0175 8.98869 14.704 9.28456L13.8323 10.1054L12.9606 9.28456C12.6464 8.98799 12.3876 8.73838 12.1843 8.53572C11.4295 7.78093 10.4057 7.35688 9.33828 7.35688C8.27083 7.35688 7.2471 7.78093 6.4923 8.53572C4.93744 10.0916 4.91944 12.6072 6.43511 14.1705L13.8323 21.5677L21.2158 14.1832ZM5.59307 7.63755C6.08485 7.14564 6.66872 6.75543 7.31133 6.4892C7.95394 6.22297 8.64271 6.08594 9.33828 6.08594C10.0339 6.08594 10.7226 6.22297 11.3652 6.4892C12.0078 6.75543 12.5917 7.14564 13.0835 7.63755C13.2763 7.83103 13.5259 8.07181 13.8323 8.3599C14.1374 8.07181 14.387 7.83067 14.5812 7.63649C15.5667 6.63576 16.9095 6.06752 18.314 6.0568C19.7185 6.04607 21.0698 6.59373 22.0705 7.5793C23.0713 8.56486 23.6395 9.90761 23.6502 11.3121C23.6609 12.7167 23.1133 14.0679 22.1277 15.0687L14.5812 22.6163C14.3825 22.8148 14.1132 22.9264 13.8323 22.9264C13.5515 22.9264 13.2821 22.8148 13.0835 22.6163L5.53481 15.0676C4.56678 14.0692 4.03028 12.7302 4.04118 11.3396C4.05208 9.949 4.6095 8.61851 5.59307 7.63543V7.63755Z" fill="white"/>
</svg>
