<svg width="35" height="35" viewBox="0 0 35 35" fill="none" xmlns="http://www.w3.org/2000/svg">
<path d="M34.999 13.7253C34.9949 14.2943 34.808 14.8469 34.4658 15.3016C34.1236 15.7562 33.6442 16.0888 33.0986 16.2502L33.0649 16.2603L19.9353 19.9365L16.259 33.0661L16.2489 33.0998C16.0873 33.6453 15.7547 34.1245 15.3001 34.4666C14.8455 34.8088 14.293 34.9959 13.724 35.0002H13.6735C13.1156 35.0054 12.5702 34.8347 12.1148 34.5123C11.6595 34.1898 11.3173 33.7321 11.1368 33.2041L0.155135 3.59697C0.15158 3.58825 0.148765 3.57924 0.146718 3.57004C-0.0173964 3.09339 -0.0444415 2.58025 0.0686605 2.08899C0.181763 1.59773 0.430471 1.14808 0.786492 0.791177C1.14251 0.434279 1.59156 0.184465 2.08253 0.0701548C2.57351 -0.0441553 3.08672 -0.0183725 3.56377 0.144569L3.5907 0.152986L33.2029 11.1381C33.7391 11.3213 34.2026 11.6713 34.5258 12.1367C34.8489 12.6022 35.0147 13.1588 34.999 13.7253Z" fill="#E0FE08"/>
</svg>
