<svg width="38" height="38" viewBox="0 0 38 38" fill="none" xmlns="http://www.w3.org/2000/svg">
<path fill-rule="evenodd" clip-rule="evenodd" d="M12.6667 11.0833C12.6667 9.40363 13.3339 7.79272 14.5217 6.60499C15.7094 5.41726 17.3203 4.75 19 4.75C20.6797 4.75 22.2906 5.41726 23.4783 6.60499C24.6661 7.79272 25.3333 9.40363 25.3333 11.0833C25.3333 12.763 24.6661 14.3739 23.4783 15.5617C22.2906 16.7494 20.6797 17.4167 19 17.4167C17.3203 17.4167 15.7094 16.7494 14.5217 15.5617C13.3339 14.3739 12.6667 12.763 12.6667 11.0833ZM12.6667 20.5833C10.567 20.5833 8.5534 21.4174 7.06874 22.9021C5.58407 24.3867 4.75 26.4004 4.75 28.5C4.75 29.7598 5.25045 30.968 6.14124 31.8588C7.03204 32.7496 8.24022 33.25 9.5 33.25H28.5C29.7598 33.25 30.968 32.7496 31.8588 31.8588C32.7496 30.968 33.25 29.7598 33.25 28.5C33.25 26.4004 32.4159 24.3867 30.9313 22.9021C29.4466 21.4174 27.433 20.5833 25.3333 20.5833H12.6667Z" fill="#919191"/>
</svg>
