<svg width="14" height="14" viewBox="0 0 14 14" fill="none" xmlns="http://www.w3.org/2000/svg">
<path fill-rule="evenodd" clip-rule="evenodd" d="M4.66667 4.08333C4.66667 3.46449 4.9125 2.871 5.35008 2.43342C5.78767 1.99583 6.38116 1.75 7 1.75C7.61884 1.75 8.21233 1.99583 8.64992 2.43342C9.0875 2.871 9.33333 3.46449 9.33333 4.08333C9.33333 4.70217 9.0875 5.29566 8.64992 5.73325C8.21233 6.17083 7.61884 6.41667 7 6.41667C6.38116 6.41667 5.78767 6.17083 5.35008 5.73325C4.9125 5.29566 4.66667 4.70217 4.66667 4.08333ZM4.66667 7.58333C3.89312 7.58333 3.15125 7.89062 2.60427 8.4376C2.05729 8.98459 1.75 9.72645 1.75 10.5C1.75 10.9641 1.93437 11.4092 2.26256 11.7374C2.59075 12.0656 3.03587 12.25 3.5 12.25H10.5C10.9641 12.25 11.4092 12.0656 11.7374 11.7374C12.0656 11.4092 12.25 10.9641 12.25 10.5C12.25 9.72645 11.9427 8.98459 11.3957 8.4376C10.8487 7.89062 10.1069 7.58333 9.33333 7.58333H4.66667Z" fill="#6F6F6F"/>
</svg>
