<svg width="53" height="53" viewBox="0 0 53 53" fill="none" xmlns="http://www.w3.org/2000/svg">
<path fill-rule="evenodd" clip-rule="evenodd" d="M15.4583 15.4584C15.4588 13.3692 16.0519 11.3231 17.1688 9.55753C18.2857 7.792 19.8805 6.37957 21.7681 5.48426C23.6557 4.58896 25.7585 4.24754 27.8324 4.49964C29.9063 4.75174 31.8661 5.58703 33.4842 6.90849C35.1023 8.22995 36.3124 9.98335 36.9737 11.965C37.6351 13.9467 37.7207 16.0754 37.2206 18.1038C36.7205 20.1322 35.6552 21.9771 34.1484 23.4243C32.6417 24.8714 30.7553 25.8614 28.7083 26.2792V37.5417C28.7083 38.1274 28.4757 38.6891 28.0615 39.1032C27.6474 39.5174 27.0857 39.75 26.5 39.75C25.9143 39.75 25.3526 39.5174 24.9385 39.1032C24.5243 38.6891 24.2917 38.1274 24.2917 37.5417V26.2792C21.7977 25.7701 19.5561 24.415 17.9464 22.4431C16.3368 20.4713 15.4578 18.0038 15.4583 15.4584ZM20.9549 35.5542C20.9988 35.841 20.9858 36.1337 20.9165 36.4155C20.8473 36.6973 20.7232 36.9627 20.5513 37.1965C20.3794 37.4303 20.1632 37.6279 19.9149 37.7781C19.6666 37.9283 19.3912 38.028 19.1043 38.0717C16.282 38.5023 14.0406 39.1516 12.5676 39.8715C11.8278 40.2337 11.3884 40.5627 11.1609 40.8034L11.1145 40.8542C11.1874 40.9403 11.3133 41.0662 11.5341 41.2274C12.1525 41.6845 13.1882 42.188 14.6655 42.6496C17.596 43.566 21.7808 44.1667 26.5 44.1667C31.2192 44.1667 35.404 43.566 38.3345 42.6496C39.814 42.188 40.8475 41.6845 41.4659 41.2274C41.6867 41.0662 41.8126 40.9403 41.8855 40.8542L41.8391 40.8034C41.6116 40.5627 41.1722 40.2337 40.4324 39.8715C38.9594 39.1516 36.718 38.5023 33.8957 38.0717C33.6057 38.0319 33.3265 37.9348 33.0743 37.7862C32.8221 37.6375 32.602 37.4402 32.4268 37.2056C32.2516 36.9711 32.1247 36.7041 32.0536 36.4201C31.9825 36.1362 31.9686 35.8409 32.0127 35.5515C32.0568 35.2621 32.1579 34.9843 32.3103 34.7343C32.4627 34.4844 32.6632 34.2672 32.9003 34.0955C33.1374 33.9237 33.4062 33.8008 33.6912 33.734C33.9762 33.6671 34.2717 33.6575 34.5604 33.7058C37.6256 34.1696 40.3507 34.9138 42.3757 35.9053C43.3849 36.4 44.3279 37.0095 45.0434 37.7647C45.7721 38.531 46.375 39.5756 46.375 40.8542C46.375 42.6452 45.2178 43.9459 44.0916 44.7784C42.9212 45.6441 41.3687 46.3287 39.6528 46.8653C36.1857 47.9474 31.5394 48.5834 26.5 48.5834C21.4606 48.5834 16.812 47.9474 13.3494 46.8653C11.6313 46.3287 10.081 45.6441 8.91062 44.7784C7.78217 43.9459 6.625 42.6452 6.625 40.8542C6.625 39.5734 7.22787 38.531 7.95662 37.7625C8.67433 37.0073 9.61508 36.4 10.6243 35.9075C12.6493 34.9138 15.3766 34.1718 18.4374 33.7058C18.7242 33.6619 19.0169 33.6749 19.2987 33.7442C19.5805 33.8134 19.8458 33.9375 20.0796 34.1094C20.3134 34.2812 20.5111 34.4975 20.6613 34.7458C20.8114 34.9941 20.9112 35.2673 20.9549 35.5542Z" fill="#005057"/>
</svg>
