<svg width="24" height="24" viewBox="0 0 24 24" fill="none" xmlns="http://www.w3.org/2000/svg">
<path fill-rule="evenodd" clip-rule="evenodd" d="M7 7.99898C7.00019 7.05295 7.26877 6.12639 7.77454 5.32691C8.2803 4.52742 9.0025 3.88783 9.85726 3.48241C10.712 3.07699 11.6642 2.92238 12.6034 3.03654C13.5425 3.1507 14.4299 3.52895 15.1627 4.12734C15.8954 4.72574 16.4433 5.51973 16.7428 6.4171C17.0423 7.31448 17.0811 8.2784 16.8546 9.19692C16.6282 10.1154 16.1458 10.9509 15.4634 11.6062C14.7811 12.2615 13.9269 12.7098 13 12.899V17.999C13 18.2642 12.8946 18.5186 12.7071 18.7061C12.5196 18.8936 12.2652 18.999 12 18.999C11.7348 18.999 11.4804 18.8936 11.2929 18.7061C11.1054 18.5186 11 18.2642 11 17.999V12.899C9.87064 12.6685 8.8556 12.0548 8.12669 11.1619C7.39778 10.269 6.99976 9.15164 7 7.99898Z" fill="#8A8A8A"/>
</svg>
