<svg width="32" height="32" viewBox="0 0 32 32" fill="none" xmlns="http://www.w3.org/2000/svg">
<path d="M28.0003 28L22.2096 22.2093M22.2096 22.2093C23.2001 21.2188 23.9858 20.0429 24.5219 18.7487C25.058 17.4546 25.3339 16.0675 25.3339 14.6667C25.3339 13.2659 25.058 11.8788 24.5219 10.5846C23.9858 9.29043 23.2001 8.11452 22.2096 7.124C21.2191 6.13348 20.0432 5.34776 18.749 4.8117C17.4548 4.27563 16.0677 3.99973 14.6669 3.99973C13.2661 3.99973 11.8791 4.27563 10.5849 4.8117C9.29071 5.34776 8.11479 6.13348 7.12427 7.124C5.12384 9.12444 4 11.8376 4 14.6667C4 17.4957 5.12384 20.2089 7.12427 22.2093C9.12471 24.2098 11.8379 25.3336 14.6669 25.3336C17.496 25.3336 20.2092 24.2098 22.2096 22.2093Z" stroke="#8A8A8A" stroke-width="2.5" stroke-linecap="round" stroke-linejoin="round"/>
</svg>
