<svg width="13" height="13" viewBox="0 0 13 13" fill="none" xmlns="http://www.w3.org/2000/svg">
<path d="M3.58583 5.84458C4.36583 7.3775 5.6225 8.63417 7.15542 9.41417L8.34708 8.2225C8.49875 8.07083 8.71 8.0275 8.89958 8.08708C9.50625 8.2875 10.1562 8.39583 10.8333 8.39583C10.977 8.39583 11.1148 8.4529 11.2164 8.55448C11.3179 8.65607 11.375 8.79384 11.375 8.9375V10.8333C11.375 10.977 11.3179 11.1148 11.2164 11.2164C11.1148 11.3179 10.977 11.375 10.8333 11.375C8.39113 11.375 6.04896 10.4048 4.32206 8.67794C2.59516 6.95104 1.625 4.60887 1.625 2.16667C1.625 2.02301 1.68207 1.88523 1.78365 1.78365C1.88523 1.68207 2.02301 1.625 2.16667 1.625H4.0625C4.20616 1.625 4.34393 1.68207 4.44552 1.78365C4.5471 1.88523 4.60417 2.02301 4.60417 2.16667C4.60417 2.84375 4.7125 3.49375 4.91292 4.10042C4.9725 4.29 4.92917 4.50125 4.7775 4.65292L3.58583 5.84458Z" fill="#6F6F6F"/>
</svg>
