<svg width="1728" height="1117" viewBox="0 0 1728 1117" fill="none" xmlns="http://www.w3.org/2000/svg">
<rect width="1728" height="1117" fill="#005057"/>
<path d="M866.019 471.142L877.491 475.597C877.44 476.583 877.19 483.264 877.155 484.251C877.004 489.628 877.07 495.041 877.547 499.189C877.738 500.851 878.002 502.142 878.331 503.456C878.554 504.347 878.807 505.25 879.086 506.285C880.755 512.474 883.605 518.379 888.126 525.857L892.313 533.361C892.313 533.361 862.059 499.304 866.019 471.142Z" fill="#FEFFFD"/>
<path fill-rule="evenodd" clip-rule="evenodd" d="M908.299 456.22C909.708 455.781 910.98 455.386 912.058 454.998C920.468 451.977 920.678 450.792 920.682 450.717C920.046 481.543 905.178 496.005 878.6 497.684L888.74 490.425C899.741 488.665 906.778 485.257 909.472 482.21C898.848 486.909 898.417 485.746 891.702 487.073C900.784 478.772 912.307 465.299 912.307 465.299C912.307 465.299 897.789 473.472 888.378 484.693C887.378 478.75 888.631 476.996 890.671 470.736L892.186 467.475C888.232 472.384 885.208 478.592 886.07 486.062C883.656 489.156 882.192 491.384 880.778 493.805C880.076 495.008 879.387 496.257 878.6 497.684C878.514 497.839 878.301 498.126 878.086 498.418C877.864 498.717 877.64 499.02 877.547 499.189C877.07 495.041 877.004 489.628 877.155 484.251C881.462 464.569 898.334 459.32 908.299 456.22Z" fill="#FEFFFD"/>
<path fill-rule="evenodd" clip-rule="evenodd" d="M878.086 498.418C878.301 498.126 878.514 497.839 878.6 497.684L885.891 499.843C885.891 499.843 881.212 502.986 881.534 503.541C882.5 505.206 888.841 501.065 888.841 501.065C890.067 501.618 891.266 502.215 892.428 502.853C892.428 502.853 886.27 505.832 886.664 507.533C887.059 509.235 895.603 504.758 895.603 504.758C896.467 505.324 897.302 505.913 898.102 506.523C898.102 506.523 891.418 510.11 890.955 511.866C890.492 513.622 901.805 509.742 901.805 509.742C906.247 514.186 908.828 519.36 908.129 524.593C898.567 522.547 893.437 520.143 884.626 513.992C882.555 511.17 880.542 507.837 878.58 503.952L877.547 499.189C877.64 499.02 877.864 498.717 878.086 498.418Z" fill="#FEFFFD"/>
<path d="M907.687 526.635C907.892 525.955 908.038 525.273 908.129 524.593C898.567 522.547 893.437 520.143 884.626 513.992C891.579 523.464 899.182 527.172 907.687 526.635Z" fill="#6F6F6F"/>
<path d="M922.337 446.906C914.748 438.951 905.163 433.18 894.582 430.197C884.001 427.213 872.813 427.125 862.187 429.943C851.561 432.76 841.886 438.38 834.174 446.215C827.025 454.949 827.307 455.341 822.341 465.241L830.498 477.499C832.608 469.007 836.959 461.236 843.098 455C849.237 448.763 856.938 444.29 865.397 442.047C873.855 439.804 882.761 439.874 891.183 442.249C899.606 444.624 899.871 444.756 907.334 449.078L922.337 446.906Z" fill="#FEFFFD"/>
<path d="M815.625 494.998C815.841 505.99 819.494 515.892 825.274 525.243C831.055 534.594 839.241 542.221 848.977 547.327C858.713 552.433 869.641 554.831 880.62 554.27C891.792 552.666 897.732 551.321 906.928 545.148L893.795 539.587C889.9 541.137 888.721 541.317 879.982 541.764C871.242 542.21 862.543 540.301 854.793 536.237C847.044 532.172 840.528 526.101 835.926 518.658C831.325 511.214 828.64 502.479 827.291 493.777L815.625 494.998Z" fill="#FEFFFD"/>
<path d="M815.625 494.998L827.291 493.777C829.407 493.558 836.043 493.225 836.043 493.225L820.158 469.379L807.179 495.761C807.179 495.761 810.362 495.56 815.625 494.998Z" fill="#FEFFFD"/>
<path d="M805.37 604.131C805.234 602.756 804.648 601.687 803.614 600.926C802.58 600.165 801.177 599.784 799.404 599.784C798.2 599.784 797.183 599.955 796.353 600.295C795.523 600.625 794.887 601.085 794.444 601.676C794.012 602.267 793.796 602.937 793.796 603.687C793.773 604.312 793.904 604.858 794.188 605.324C794.484 605.79 794.887 606.193 795.398 606.534C795.91 606.864 796.501 607.153 797.171 607.403C797.842 607.642 798.558 607.847 799.319 608.017L802.455 608.767C803.978 609.108 805.376 609.562 806.648 610.131C807.921 610.699 809.023 611.398 809.955 612.227C810.887 613.057 811.609 614.034 812.12 615.159C812.643 616.284 812.91 617.574 812.921 619.028C812.91 621.165 812.364 623.017 811.285 624.585C810.217 626.142 808.671 627.352 806.648 628.216C804.637 629.068 802.211 629.494 799.37 629.494C796.552 629.494 794.097 629.062 792.006 628.199C789.927 627.335 788.302 626.057 787.131 624.364C785.972 622.659 785.364 620.551 785.308 618.04H792.45C792.529 619.21 792.864 620.187 793.455 620.972C794.058 621.744 794.859 622.33 795.859 622.727C796.87 623.114 798.012 623.307 799.285 623.307C800.535 623.307 801.62 623.125 802.54 622.761C803.472 622.398 804.194 621.892 804.705 621.244C805.217 620.597 805.472 619.852 805.472 619.011C805.472 618.227 805.239 617.568 804.773 617.034C804.319 616.5 803.648 616.045 802.762 615.67C801.887 615.295 800.813 614.955 799.54 614.648L795.739 613.693C792.796 612.977 790.472 611.858 788.768 610.335C787.063 608.812 786.217 606.761 786.228 604.182C786.217 602.068 786.779 600.222 787.915 598.642C789.063 597.062 790.637 595.83 792.637 594.943C794.637 594.057 796.91 593.614 799.455 593.614C802.046 593.614 804.308 594.057 806.239 594.943C808.183 595.83 809.694 597.062 810.773 598.642C811.853 600.222 812.41 602.051 812.444 604.131H805.37ZM825.215 629.494C823.545 629.494 822.056 629.205 820.749 628.625C819.442 628.034 818.408 627.165 817.647 626.017C816.897 624.858 816.522 623.415 816.522 621.687C816.522 620.233 816.789 619.011 817.323 618.023C817.857 617.034 818.585 616.239 819.505 615.636C820.425 615.034 821.471 614.58 822.641 614.273C823.823 613.966 825.062 613.75 826.357 613.625C827.88 613.466 829.107 613.318 830.039 613.182C830.971 613.034 831.647 612.818 832.067 612.534C832.488 612.25 832.698 611.83 832.698 611.273V611.17C832.698 610.091 832.357 609.256 831.675 608.665C831.005 608.074 830.05 607.778 828.812 607.778C827.505 607.778 826.465 608.068 825.692 608.648C824.92 609.216 824.408 609.932 824.158 610.795L817.442 610.25C817.783 608.659 818.454 607.284 819.454 606.125C820.454 604.955 821.744 604.057 823.323 603.432C824.914 602.795 826.755 602.477 828.846 602.477C830.3 602.477 831.692 602.648 833.022 602.989C834.363 603.33 835.55 603.858 836.585 604.574C837.63 605.29 838.454 606.21 839.056 607.335C839.658 608.449 839.96 609.784 839.96 611.341V629H833.073V625.369H832.869C832.448 626.187 831.886 626.909 831.181 627.534C830.477 628.148 829.63 628.631 828.641 628.983C827.653 629.324 826.511 629.494 825.215 629.494ZM827.295 624.483C828.363 624.483 829.306 624.273 830.124 623.852C830.942 623.42 831.585 622.841 832.05 622.114C832.516 621.386 832.749 620.562 832.749 619.642V616.864C832.522 617.011 832.21 617.148 831.812 617.273C831.425 617.386 830.988 617.494 830.499 617.597C830.011 617.687 829.522 617.773 829.033 617.852C828.545 617.92 828.102 617.983 827.704 618.04C826.852 618.165 826.107 618.364 825.471 618.636C824.835 618.909 824.34 619.278 823.988 619.744C823.636 620.199 823.46 620.767 823.46 621.449C823.46 622.437 823.817 623.193 824.533 623.716C825.261 624.227 826.181 624.483 827.295 624.483ZM845.593 629V602.818H852.633V607.386H852.906C853.383 605.761 854.184 604.534 855.309 603.705C856.434 602.864 857.729 602.443 859.195 602.443C859.559 602.443 859.951 602.466 860.371 602.511C860.792 602.557 861.161 602.619 861.479 602.699V609.142C861.138 609.04 860.667 608.949 860.065 608.869C859.462 608.79 858.911 608.75 858.411 608.75C857.343 608.75 856.388 608.983 855.548 609.449C854.718 609.903 854.059 610.54 853.57 611.358C853.093 612.176 852.854 613.119 852.854 614.187V629H845.593ZM875.947 629.511C873.254 629.511 870.935 628.966 868.992 627.875C867.06 626.773 865.572 625.216 864.526 623.205C863.481 621.182 862.958 618.79 862.958 616.028C862.958 613.335 863.481 610.972 864.526 608.937C865.572 606.903 867.043 605.318 868.941 604.182C870.85 603.045 873.089 602.477 875.657 602.477C877.384 602.477 878.992 602.756 880.481 603.312C881.981 603.858 883.288 604.682 884.401 605.784C885.526 606.886 886.401 608.273 887.026 609.943C887.651 611.602 887.964 613.545 887.964 615.773V617.767H865.856V613.267H881.129C881.129 612.222 880.901 611.295 880.447 610.489C879.992 609.682 879.362 609.051 878.555 608.597C877.759 608.131 876.833 607.898 875.776 607.898C874.674 607.898 873.697 608.153 872.844 608.665C872.004 609.165 871.344 609.841 870.867 610.693C870.39 611.534 870.146 612.472 870.134 613.506V617.784C870.134 619.08 870.373 620.199 870.85 621.142C871.339 622.085 872.026 622.812 872.913 623.324C873.799 623.835 874.85 624.091 876.066 624.091C876.873 624.091 877.612 623.977 878.282 623.75C878.952 623.523 879.526 623.182 880.004 622.727C880.481 622.273 880.844 621.716 881.094 621.057L887.81 621.5C887.469 623.114 886.771 624.523 885.714 625.727C884.668 626.92 883.316 627.852 881.657 628.523C880.009 629.182 878.106 629.511 875.947 629.511ZM914.487 610.284L907.839 610.693C907.725 610.125 907.481 609.614 907.106 609.159C906.731 608.693 906.237 608.324 905.623 608.051C905.021 607.767 904.299 607.625 903.458 607.625C902.333 607.625 901.384 607.864 900.612 608.341C899.839 608.807 899.452 609.432 899.452 610.216C899.452 610.841 899.702 611.369 900.202 611.801C900.702 612.233 901.56 612.58 902.776 612.841L907.515 613.795C910.06 614.318 911.958 615.159 913.208 616.318C914.458 617.477 915.083 619 915.083 620.886C915.083 622.602 914.577 624.108 913.566 625.403C912.566 626.699 911.191 627.71 909.441 628.437C907.702 629.153 905.697 629.511 903.424 629.511C899.958 629.511 897.197 628.79 895.14 627.347C893.094 625.892 891.896 623.915 891.543 621.415L898.685 621.04C898.901 622.097 899.424 622.903 900.254 623.46C901.083 624.006 902.146 624.278 903.441 624.278C904.714 624.278 905.737 624.034 906.509 623.545C907.293 623.045 907.691 622.403 907.702 621.619C907.691 620.96 907.413 620.42 906.867 620C906.322 619.568 905.481 619.239 904.344 619.011L899.81 618.108C897.254 617.597 895.35 616.71 894.1 615.449C892.862 614.187 892.242 612.58 892.242 610.625C892.242 608.943 892.697 607.494 893.606 606.278C894.526 605.062 895.816 604.125 897.475 603.466C899.146 602.807 901.1 602.477 903.339 602.477C906.646 602.477 909.248 603.176 911.146 604.574C913.055 605.972 914.168 607.875 914.487 610.284ZM927.121 629.494C925.451 629.494 923.962 629.205 922.656 628.625C921.349 628.034 920.315 627.165 919.553 626.017C918.803 624.858 918.428 623.415 918.428 621.687C918.428 620.233 918.695 619.011 919.229 618.023C919.763 617.034 920.491 616.239 921.411 615.636C922.332 615.034 923.377 614.58 924.548 614.273C925.729 613.966 926.968 613.75 928.263 613.625C929.786 613.466 931.013 613.318 931.945 613.182C932.877 613.034 933.553 612.818 933.974 612.534C934.394 612.25 934.604 611.83 934.604 611.273V611.17C934.604 610.091 934.263 609.256 933.582 608.665C932.911 608.074 931.957 607.778 930.718 607.778C929.411 607.778 928.371 608.068 927.599 608.648C926.826 609.216 926.315 609.932 926.065 610.795L919.349 610.25C919.69 608.659 920.36 607.284 921.36 606.125C922.36 604.955 923.65 604.057 925.229 603.432C926.82 602.795 928.661 602.477 930.752 602.477C932.207 602.477 933.599 602.648 934.928 602.989C936.269 603.33 937.457 603.858 938.491 604.574C939.536 605.29 940.36 606.21 940.962 607.335C941.565 608.449 941.866 609.784 941.866 611.341V629H934.979V625.369H934.775C934.354 626.187 933.792 626.909 933.087 627.534C932.383 628.148 931.536 628.631 930.548 628.983C929.559 629.324 928.417 629.494 927.121 629.494ZM929.201 624.483C930.269 624.483 931.212 624.273 932.031 623.852C932.849 623.42 933.491 622.841 933.957 622.114C934.423 621.386 934.656 620.562 934.656 619.642V616.864C934.428 617.011 934.116 617.148 933.718 617.273C933.332 617.386 932.894 617.494 932.406 617.597C931.917 617.687 931.428 617.773 930.94 617.852C930.451 617.92 930.008 617.983 929.61 618.04C928.758 618.165 928.013 618.364 927.377 618.636C926.741 618.909 926.246 619.278 925.894 619.744C925.542 620.199 925.366 620.767 925.366 621.449C925.366 622.437 925.724 623.193 926.44 623.716C927.167 624.227 928.087 624.483 929.201 624.483Z" fill="#FEFFFD"/>
</svg>
