<svg width="35" height="35" viewBox="0 0 35 35" fill="none" xmlns="http://www.w3.org/2000/svg">
<path d="M17.4994 3.81409C25.5537 3.81409 32.0827 10.343 32.0827 18.3974C32.0827 26.4518 25.5537 32.9808 17.4994 32.9808C9.44498 32.9808 2.91602 26.4518 2.91602 18.3974C2.91602 10.343 9.44498 3.81409 17.4994 3.81409ZM23.3385 19.6778C22.8354 18.9122 22.4723 18.361 21.0898 18.5797C18.4794 18.9939 18.1891 19.4503 18.0652 20.2028L18.0302 20.4303L17.9937 20.6724C17.8523 21.6685 17.8566 22.0447 18.3146 22.5245C20.1594 24.4612 21.2648 25.8568 21.6002 26.6735C21.7635 27.0716 22.1835 28.2776 21.8948 29.4706C23.6645 28.7647 25.24 27.6462 26.49 26.2083C26.6504 25.6628 26.7671 24.9833 26.7671 24.1608V24.0076C26.7671 22.663 26.7671 22.0491 25.8162 21.5051C25.5111 21.3311 25.1971 21.1729 24.8756 21.0312C24.3404 20.7876 23.986 20.6287 23.5077 19.9287C23.4494 19.846 23.393 19.7624 23.3385 19.6778ZM17.4994 6.48721C14.1204 6.48721 11.0681 7.89596 8.90102 10.1564C9.15914 10.3358 9.38373 10.588 9.53831 10.9351C9.83581 11.6016 9.83581 12.2885 9.83581 12.8966C9.83581 13.3749 9.83581 13.8299 9.98893 14.158C10.1989 14.6072 11.106 14.7997 11.9066 14.966C12.1939 15.0272 12.4885 15.0885 12.7569 15.1628C13.4948 15.367 14.0664 16.0305 14.5229 16.5628C14.7125 16.783 14.9939 17.1083 15.1354 17.1899C15.2083 17.1374 15.4431 16.8822 15.5583 16.4637C15.6487 16.1428 15.6225 15.8599 15.4927 15.7053C14.676 14.7428 14.7212 12.8908 14.9735 12.2068C15.3702 11.1291 16.6098 11.2093 17.5169 11.2676C17.8552 11.2895 18.1731 11.3114 18.4123 11.2808C19.3194 11.167 19.5994 9.78596 19.7962 9.51617C20.2221 8.93284 21.5258 8.05346 22.3337 7.51096C20.8125 6.83269 19.165 6.48381 17.4994 6.48721Z" fill="#919191"/>
</svg>
