<svg width="350" height="350" viewBox="0 0 350 350" fill="none" xmlns="http://www.w3.org/2000/svg">
<rect width="350" height="350" fill="#005057"/>
<path d="M170.683 141.141L192.709 149.671C192.611 151.557 192.133 164.345 192.065 166.233C191.778 176.525 191.907 186.883 192.823 194.822C193.19 198.003 193.698 200.474 194.33 202.988C194.759 204.695 195.244 206.422 195.781 208.405C198.986 220.25 204.46 231.552 213.143 245.864L221.182 260.229C221.182 260.229 163.09 195.037 170.683 141.141Z" fill="white"/>
<path fill-rule="evenodd" clip-rule="evenodd" d="M251.847 112.594C254.554 111.755 256.995 110.999 259.064 110.258C275.21 104.477 275.611 102.21 275.62 102.066C274.41 161.064 245.869 188.738 194.844 191.942L214.309 178.053C235.429 174.689 248.937 168.168 254.109 162.336C233.713 171.327 232.887 169.102 219.995 171.638C237.427 155.754 259.547 129.973 259.547 129.973C259.547 129.973 231.676 145.61 213.612 167.082C211.691 155.708 214.095 152.35 218.009 140.372L220.918 134.131C213.329 143.524 207.525 155.404 209.181 169.702C204.549 175.622 201.739 179.887 199.025 184.52C197.678 186.82 196.354 189.212 194.844 191.942C194.679 192.239 194.271 192.789 193.857 193.347C193.432 193.92 193.002 194.5 192.823 194.822C191.907 186.883 191.778 176.525 192.065 166.233C200.327 128.565 232.718 118.524 251.847 112.594Z" fill="white"/>
<path fill-rule="evenodd" clip-rule="evenodd" d="M193.857 193.347C194.271 192.789 194.679 192.239 194.844 191.942L208.844 196.078C208.844 196.078 199.861 202.09 200.479 203.153C202.334 206.341 214.507 198.417 214.507 198.417C216.861 199.475 219.163 200.619 221.393 201.84C221.393 201.84 209.572 207.538 210.329 210.795C211.087 214.052 227.489 205.486 227.489 205.486C229.148 206.57 230.751 207.698 232.288 208.865C232.288 208.865 219.457 215.729 218.568 219.089C217.68 222.449 239.398 215.028 239.398 215.028C247.928 223.534 252.884 233.438 251.544 243.453C233.186 239.534 223.336 234.931 206.419 223.157C202.442 217.755 198.576 211.375 194.808 203.939L192.823 194.822C193.002 194.5 193.432 193.92 193.857 193.347Z" fill="white"/>
<path d="M250.697 247.361C251.09 246.058 251.37 244.755 251.544 243.453C233.186 239.534 223.336 234.931 206.419 223.157C219.769 241.287 234.369 248.386 250.697 247.361Z" fill="#6F6F6F"/>
<path d="M278.807 94.882C264.261 79.6344 245.887 68.573 225.605 62.8533C205.323 57.1336 183.877 56.9655 163.508 62.3668C143.138 67.768 124.593 78.5402 109.81 93.5581C96.1074 110.3 96.6484 111.052 87.1285 130.028L102.765 153.526C106.808 137.247 115.15 122.352 126.917 110.398C138.684 98.4434 153.446 89.8686 169.66 85.5693C185.874 81.2699 202.945 81.4036 219.09 85.9565C235.234 90.5094 235.743 90.7618 250.047 99.0455L278.807 94.882Z" fill="white"/>
<path d="M73.9447 186.655C74.3582 207.724 81.3607 226.705 92.4416 244.629C103.523 262.554 119.214 277.174 137.876 286.961C156.538 296.749 177.486 301.346 198.532 300.271C219.947 297.195 231.333 294.617 248.96 282.785L223.787 272.125C216.319 275.097 214.06 275.442 197.307 276.298C180.555 277.153 163.88 273.495 149.025 265.703C134.17 257.912 121.68 246.275 112.859 232.007C104.039 217.739 98.8922 200.995 96.3075 184.315L73.9447 186.655Z" fill="white"/>
<path d="M73.9447 186.655L96.3075 184.315C100.363 183.894 113.084 183.255 113.084 183.255L82.6351 137.547L57.756 188.117C57.756 188.117 63.8565 187.731 73.9447 186.655Z" fill="white"/>
</svg>
